<svg width="580" height="400" xmlns="http://www.w3.org/2000/svg">
 <!-- Created with Method Draw - http://github.com/duopixel/Method-Draw/ -->
 <g>
  <title>background</title>
  <rect fill="none" id="canvas_background" height="402" width="582" y="-1" x="-1"/>
  <g display="none" overflow="visible" y="0" x="0" height="100%" width="100%" id="canvasGrid">
   <rect fill="url(#gridpattern)" stroke-width="0" y="0" x="0" height="100%" width="100%"/>
  </g>
 </g>
 <g>
  <title>Layer 1</title>
  <g id="svg_9">
   <path id="svg_1" d="m-13.154701,185.955902l29.073978,-48.726776l50.352268,-28.136963l58.146851,0l50.353149,28.136963l29.073761,48.726776l0,56.272247l-29.073761,48.728668l-50.353149,28.135406l-58.146851,0l-50.352268,-28.135406l-29.073978,-48.728668l0,-56.272247z" stroke-width="1.5" fill="#751515"/>
   <path id="svg_2" d="m-68.154701,305.955902l29.073978,-48.726776l50.352267,-28.136963l58.146852,0l50.353149,28.136963l29.073761,48.726776l0,56.272247l-29.073761,48.728668l-50.353149,28.135406l-58.146852,0l-50.352267,-28.135406l-29.073978,-48.728668l0,-56.272247z" stroke-width="1.5" fill="#ff0000"/>
   <path id="svg_3" d="m89.845299,339.955902l29.073982,-48.726776l50.352264,-28.136963l58.146851,0l50.353149,28.136963l29.073761,48.726776l0,56.272247l-29.073761,48.728668l-50.353149,28.135406l-58.146851,0l-50.352264,-28.135406l-29.073982,-48.728668l0,-56.272247z" stroke-width="1.5" fill="#e52222"/>
   <path id="svg_4" d="m176.845306,190.955902l29.073975,-48.726776l50.352264,-28.136963l58.146851,0l50.353149,28.136963l29.073761,48.726776l0,56.272247l-29.073761,48.728668l-50.353149,28.135406l-58.146851,0l-50.352264,-28.135406l-29.073975,-48.728668l0,-56.272247z" stroke-width="1.5" fill="#4c0707"/>
   <path id="svg_5" d="m230.845306,324.955902l29.073975,-48.726776l50.352264,-28.136963l58.146851,0l50.353149,28.136963l29.073761,48.726776l0,56.272247l-29.073761,48.728668l-50.353149,28.135406l-58.146851,0l-50.352264,-28.135406l-29.073975,-48.728668l0,-56.272247z" stroke-width="1.5" fill="#ff0000"/>
   <path id="svg_6" d="m368.845306,339.955902l29.073975,-48.726776l50.352264,-28.136963l58.146851,0l50.353149,28.136963l29.073792,48.726776l0,56.272247l-29.073792,48.728668l-50.353149,28.135406l-58.146851,0l-50.352264,-28.135406l-29.073975,-48.728668l0,-56.272247z" stroke-width="1.5" fill="#e52222"/>
   <path id="svg_7" d="m383.845306,208.955902l29.073975,-48.726776l50.352264,-28.136963l58.146851,0l50.353149,28.136963l29.073792,48.726776l0,56.272247l-29.073792,48.728668l-50.353149,28.135406l-58.146851,0l-50.352264,-28.135406l-29.073975,-48.728668l0,-56.272247z" stroke-width="1.5" fill="#ad1a1a"/>
   <path id="svg_8" d="m452.845306,269.955902l29.073975,-48.726776l50.352264,-28.136963l58.146851,0l50.353149,28.136963l29.073792,48.726776l0,56.272247l-29.073792,48.728668l-50.353149,28.135406l-58.146851,0l-50.352264,-28.135406l-29.073975,-48.728668l0,-56.272247z" stroke-width="1.5" fill="#560c0c"/>
  </g>
 </g>
</svg>