<svg width="580" height="400" xmlns="http://www.w3.org/2000/svg">
 <!-- Created with Method Draw - http://github.com/duopixel/Method-Draw/ -->
 <g>
  <title>background</title>
  <rect fill="none" id="canvas_background" height="402" width="582" y="-1" x="-1"/>
 </g>
 <g>
  <title>Layer 1</title>
  <path id="svg_9" d="m31.345978,123.427689l21.57103,-35.038086l37.359535,-20.231079l43.142067,0l37.35936,20.231079l21.571396,35.038086l0,40.461975l-21.571396,35.038086l-37.35936,20.230789l-43.142067,0l-37.359535,-20.230789l-21.57103,-35.038086l0,-40.461975z" stroke-opacity="null" stroke-width="1.5" stroke="null" fill="#00bc42"/>
  <path id="svg_10" d="m65.345978,195.427689l21.57103,-35.038086l37.359535,-20.231079l43.142067,0l37.35936,20.231079l21.571396,35.038086l0,40.461975l-21.571396,35.038071l-37.35936,20.230804l-43.142067,0l-37.359535,-20.230804l-21.57103,-35.038071l0,-40.461975z" stroke-opacity="null" stroke-width="1.5" stroke="null" fill="#31d86c"/>
  <path id="svg_11" d="m118.345978,134.427689l21.57103,-35.038086l37.359543,-20.231079l43.142059,0l37.359344,20.231079l21.571411,35.038086l0,40.461975l-21.571411,35.038086l-37.359344,20.230789l-43.142059,0l-37.359543,-20.230789l-21.57103,-35.038086l0,-40.461975z" stroke-opacity="null" stroke-width="1.5" stroke="null" fill="#1d7c3f"/>
  <path id="svg_12" d="m174.345566,212.702087l26.930283,-44.087662l46.641418,-25.456314l53.860596,0l46.641144,25.456314l26.930786,44.087662l0,50.912415l-26.930786,44.087646l-46.641144,25.455963l-53.860596,0l-46.641418,-25.455963l-26.930283,-44.087646l0,-50.912415z" stroke-opacity="null" stroke-width="1.5" stroke="null" fill="#51e284"/>
  <path id="svg_13" d="m271.345978,115.427689l21.571014,-35.038086l37.359558,-20.231079l43.142059,0l37.359344,20.231079l21.571411,35.038086l0,40.461975l-21.571411,35.038086l-37.359344,20.230789l-43.142059,0l-37.359558,-20.230789l-21.571014,-35.038086l0,-40.461975z" stroke-opacity="null" stroke-width="1.5" stroke="null" fill="#00bc42"/>
  <path id="svg_14" d="m334.345978,213.427689l21.571014,-35.038086l37.359558,-20.231079l43.142059,0l37.359344,20.231079l21.571411,35.038086l0,40.461975l-21.571411,35.038071l-37.359344,20.230804l-43.142059,0l-37.359558,-20.230804l-21.571014,-35.038071l0,-40.461975z" stroke-opacity="null" stroke-width="1.5" stroke="null" fill="#31d86c"/>
  <path id="svg_15" d="m390.345978,106.427689l21.571014,-35.038086l37.359558,-20.231079l43.142059,0l37.359344,20.231079l21.571411,35.038086l0,40.461975l-21.571411,35.038086l-37.359344,20.230789l-43.142059,0l-37.359558,-20.230789l-21.571014,-35.038086l0,-40.461975z" stroke-opacity="null" stroke-width="1.5" stroke="null" fill="#1d7c3f"/>
 </g>
</svg>