<svg width="580" height="400" xmlns="http://www.w3.org/2000/svg">
 <!-- Created with Method Draw - http://github.com/duopixel/Method-Draw/ -->
 <g>
  <title>background</title>
  <rect fill="none" id="canvas_background" height="402" width="582" y="-1" x="-1"/>
 </g>
 <g>
  <title>Layer 1</title>
  <path id="svg_1" d="m-85.330246,213.501617l25.591171,-44.088684l44.317902,-25.45401l51.181976,0l44.317291,25.45401l25.591644,44.088684l0,50.910858l-25.591644,44.085876l-44.317291,25.456818l-51.181976,0l-44.317902,-25.456818l-25.591171,-44.085876l0,-50.910858z" stroke-width="1.5" fill="#070c49"/>
  <path id="svg_2" d="m-4.330246,264.501617l25.591171,-44.088684l44.317902,-25.45401l51.181976,0l44.317291,25.45401l25.591644,44.088684l0,50.910858l-25.591644,44.085876l-44.317291,25.456818l-51.181976,0l-44.317902,-25.456818l-25.591171,-44.085876l0,-50.910858z" stroke-width="1.5" fill="#1a2384"/>
  <path id="svg_3" d="m61.669754,175.501617l25.591171,-44.088684l44.317902,-25.45401l51.181976,0l44.317291,25.45401l25.591644,44.088684l0,50.910858l-25.591644,44.085876l-44.317291,25.456818l-51.181976,0l-44.317902,-25.456818l-25.591171,-44.085876l0,-50.910858z" stroke-width="1.5" fill="#2d3bbc"/>
  <path id="svg_4" d="m138.669754,263.501617l25.591171,-44.088684l44.317902,-25.45401l51.181976,0l44.317291,25.45401l25.591644,44.088684l0,50.910858l-25.591644,44.085876l-44.317291,25.456818l-51.181976,0l-44.317902,-25.456818l-25.591171,-44.085876l0,-50.910858z" stroke-width="1.5" fill="#3c4ce0"/>
  <path id="svg_5" d="m205.669754,155.501617l25.591171,-44.088684l44.317902,-25.45401l51.181976,0l44.317291,25.45401l25.591644,44.088684l0,50.910858l-25.591644,44.085876l-44.317291,25.456818l-51.181976,0l-44.317902,-25.456818l-25.591171,-44.085876l0,-50.910858z" stroke-width="1.5" fill="#2235e5"/>
  <path id="svg_6" d="m295.669739,263.501617l25.591187,-44.088684l44.317902,-25.45401l51.181976,0l44.317291,25.45401l25.591644,44.088684l0,50.910858l-25.591644,44.085876l-44.317291,25.456818l-51.181976,0l-44.317902,-25.456818l-25.591187,-44.085876l0,-50.910858z" stroke-width="1.5" fill="#333d96"/>
  <path id="svg_7" d="m352.669739,143.501617l25.591187,-44.088684l44.317902,-25.45401l51.181976,0l44.317322,25.45401l25.591614,44.088684l0,50.910858l-25.591614,44.085876l-44.317322,25.456818l-51.181976,0l-44.317902,-25.456818l-25.591187,-44.085876l0,-50.910858z" stroke-width="1.5" fill="#263ad3"/>
  <path id="svg_8" d="m430.669739,223.501617l25.591187,-44.088684l44.317902,-25.45401l51.181976,0l44.317322,25.45401l25.591614,44.088684l0,50.910858l-25.591614,44.085876l-44.317322,25.456818l-51.181976,0l-44.317902,-25.456818l-25.591187,-44.085876l0,-50.910858z" stroke-width="1.5" fill="#001dff"/>
 </g>
</svg>