<svg width="580" height="400" xmlns="http://www.w3.org/2000/svg">
 <!-- Created with Method Draw - http://github.com/duopixel/Method-Draw/ -->
 <g>
  <title>Layer 1</title>
 </g>
 <g>
  <title>background</title>
  <rect fill="none" id="canvas_background" height="402" width="582" y="-1" x="-1"/>
  <ellipse ry="111.5" rx="110.000003" id="svg_2" cy="199" cx="278.500002" stroke-opacity="null" stroke-width="1.5" stroke="null" fill="#ed0bed"/>
  <ellipse ry="34.5" rx="32.5" id="svg_3" cy="161" cx="283" stroke-opacity="null" stroke-width="1.5" stroke="null" fill="#845335"/>
  <ellipse ry="16.984615" rx="16" id="svg_4" cy="161.515388" cx="288.500001" stroke-opacity="null" stroke-width="1.5" stroke="null" fill="#DDDDDD"/>
  <path d="m214.5,252.5c1,-2 1.770248,-4.026749 2,-5c0.513748,-2.176254 2,-5 2,-7c0,-1 1.173096,-1.852737 2,-3c1.307449,-1.813995 1.386871,-2.917603 4,-4c0.923874,-0.38269 1.026749,-0.770248 2,-1c2.176254,-0.513748 3,-1 4,-1c1,0 3,0 7,0c6,0 7.823746,-0.486252 10,-1c0.973251,-0.229752 2,0 3,0c1,0 2,0 3,0c1,0 2,0 3,0c2,0 3,0 4,0c1,0 2,0 3,0c2,0 3,0 5,0c1,0 2.186005,0.692551 4,2c1.147278,0.826904 2.186005,1.692551 4,3c1.147278,0.826904 2.292908,0.292892 3,1c0.707092,0.707108 1.823761,3.486252 4,4c0.973236,0.229752 2,2 3,2c2,0 3,0 5,0c3,0 5,0 7,0c1,0 2,0 3,0c1,0 3,0 4,0c2,0 3.228363,1.148056 6,0c1.306549,-0.541199 1.823761,-1.486252 4,-2c0.973236,-0.229752 2.693451,-1.458801 4,-2c0.923889,-0.38269 2,0 4,0c1,0 2,0 3,0c1,0 2,0 3,0c1,0 3.076111,-0.38269 4,0c1.306549,0.541199 2,1 3,1c1,0 1.549164,1.95517 5,3c1.914185,0.579575 2.693451,1.458801 4,2c0.923889,0.38269 1.61731,1.076126 2,2c0.541199,1.306564 0.61731,2.076126 1,3c0.541199,1.306564 1.693451,2.458801 3,3c0.923889,0.38269 2,0 4,0c1,0 2,0 3,0c1,0 2.076111,-0.38269 3,0c1.306549,0.541199 1,2 0,3c-1,1 -1.0979,1.824432 -3,3c-0.850647,0.525726 -2.292908,-0.707092 -3,0c-0.707092,0.707092 -1.292908,1.292908 -2,2c-0.707092,0.707092 -1,1 -2,2c-1,1 -2,2 -3,2c-1,0 -2,0 -4,0c-1,0 -3.292908,-0.707092 -4,0c-0.707092,0.707092 -2,1 -4,1c-1,0 -3,0 -4,0c-1,0 -2,0 -3,0c-1,0 -1.693451,0.458801 -3,1c-0.923889,0.38269 -0.823761,1.486267 -3,2c-0.973236,0.229767 -2.076111,-0.38269 -3,0c-1.306549,0.541199 -2.292908,1.292908 -3,2c-0.707092,0.707092 -0.292908,1.292908 -1,2c-0.707092,0.707092 -0.434631,2.15097 -3,4c-0.811249,0.584717 -1,1 -3,1c-1,0 -3,0 -4,0c-2,0 -3,0 -4,0c-2,0 -3,0 -4,0c-1,0 -2,0 -3,0c-2,0 -2.852722,-1.173096 -4,-2c-1.813995,-1.307465 -2.149353,-1.474274 -3,-2c-1.9021,-1.175568 -3.025818,-3.679626 -5,-4c-3.121429,-0.506531 -3.693451,-2.458801 -5,-3c-0.923889,-0.38269 -2,0 -3,0c-2,0 -4,0 -5,0c-1,0 -2,0 -3,0c-1,0 -2,0 -3,0c-1,0 -1.693451,0.458801 -3,1c-0.923889,0.38269 -2.076111,0.61731 -3,1c-1.306549,0.541199 -1.693451,2.458801 -3,3c-0.923874,0.38269 -3,1 -5,1c-1,0 -3,1 -4,1c-1,0 -0.693436,1.458801 -2,2c-0.923874,0.38269 -2,1 -3,1c-1,0 -2,0 -3,0c-1,0 -2,0 -3,0c-1,0 -2.076126,0.38269 -3,0c-1.306564,-0.541199 -1.076126,-1.61731 -2,-2c-1.306564,-0.541199 -1.693436,-2.458801 -3,-3c-0.923874,-0.38269 -1,-1 -2,-1c-1,0 -2.292892,-0.292908 -3,-1c-0.707108,-0.707092 -1.458801,-0.693451 -2,-2c-1.148056,-2.771637 -0.486252,-3.823761 -1,-6c-0.229752,-0.973236 -1.486252,-1.823761 -2,-4c-0.229752,-0.973236 0.307449,-2.186005 -1,-4c-0.826904,-1.147263 -2,-2 -3,-3l-1,-1l-1,-1" id="svg_11" stroke-opacity="null" stroke-width="1.5" stroke="null" fill="#849854"/>
 </g>
</svg>