<svg width="580" height="400" xmlns="http://www.w3.org/2000/svg">
 <!-- Created with Method Draw - http://github.com/duopixel/Method-Draw/ -->
 <g>
  <title>Layer 1</title>
 </g>
 <g>
  <title>background</title>
  <rect fill="none" id="canvas_background" height="402" width="582" y="-1" x="-1"/>
  <ellipse ry="111.5" rx="110.000003" id="svg_2" cy="199" cx="278.500002" stroke-opacity="null" stroke-width="1.5" stroke="null" fill="#306856"/>
  <ellipse ry="34.5" rx="32.5" id="svg_3" cy="161" cx="206.058464" stroke-opacity="null" stroke-width="1.5" stroke="null" fill="#845335"/>
  <ellipse ry="16.984615" rx="16" id="svg_4" cy="161.515388" cx="211.558465" stroke-opacity="null" stroke-width="1.5" stroke="null" fill="#DDDDDD"/>
  <ellipse ry="34.5" rx="32.5" id="svg_12" cy="104" cx="284.058464" stroke-opacity="null" stroke-width="1.5" stroke="null" fill="#845335"/>
  <ellipse ry="16.984615" rx="16" id="svg_13" cy="104.515388" cx="289.558465" stroke-opacity="null" stroke-width="1.5" stroke="null" fill="#DDDDDD"/>
  <ellipse ry="34.5" rx="32.5" id="svg_14" cy="165" cx="360.058464" stroke-opacity="null" stroke-width="1.5" stroke="null" fill="#845335"/>
  <ellipse ry="16.984615" rx="16" id="svg_15" cy="165.515388" cx="365.558465" stroke-opacity="null" stroke-width="1.5" stroke="null" fill="#DDDDDD"/>
  <path d="m195.5,213.5c1,6 10.706772,25.33902 28,40c7.195969,6.100647 14.080246,10.31073 17,11c2.176254,0.513733 4.878555,3.493469 8,4c2.961258,0.48056 5.228363,-1.148041 8,0c2.613129,1.082397 4.053497,2.540497 6,3c2.176239,0.513733 4.593994,1.513 7,3c2.690002,1.662506 5.571106,2.679474 10,5c5.602173,2.935272 10.930969,3.237732 14,4c5.903381,1.466248 10,2 14,2c4,0 9,0 11,0c2,0 4.038727,0.48056 7,0c3.121429,-0.506531 4.878571,-2.493469 8,-3c0.987091,-0.160187 3.878571,-0.493469 7,-1c0.987091,-0.160187 1.693451,-1.458801 3,-2c0.923889,-0.38269 1.0979,-1.824432 3,-3c0.850647,-0.525726 2.61731,-2.076111 3,-3c1.082397,-2.613129 3,-3 4,-6c1,-3 1.303223,-3.769348 2,-5c2.031464,-3.587921 1,-6 1,-7c0,-2 0,-3 0,-5c0,-3 0,-4 0,-7c0,-2 0,-4 0,-5c0,-1 -1.414215,-3.585785 0,-5c0.707092,-0.707108 0.337494,-1.310013 2,-4c0.7435,-1.203003 2,-4 2,-6c0,-2 2.513733,-2.823746 2,-5c-0.68927,-2.919754 -4,0 -6,0c-3,0 -7,0 -12,0c-4,0 -10,0 -18,0c-7,0 -13,0 -21,0c-7,0 -14,0 -19,0c-4,0 -9,0 -12,0c-1,0 -4,0 -5,0c-3,0 -7.029968,-0.511261 -11,-1c-4.092224,-0.503769 -10.879974,-1.481689 -18,-3c-6.915573,-1.474716 -12.946716,-1.498734 -20,-2c-5.984909,-0.425339 -9,0 -10,0c-2,0 -3.149353,0.525726 -4,0c-1.902115,-1.175568 -2.907791,-2.496231 -7,-3c-2.977524,-0.366547 -7,-1 -11,-1c-3,0 -6,0 -7,0l-1,0" id="svg_16" stroke-opacity="null" stroke-width="1.5" stroke="null" fill="#8391AE"/>
 </g>
</svg>